Coordinates
version=1
nRows=22
nColumns=24
inDegrees=yes

Units are S.I. units (second, meters, Newtons, ...)
Angles are in degrees.

endheader
time	pelvis_tilt	pelvis_list	pelvis_rotation	pelvis_tx	pelvis_ty	pelvis_tz	hip_flexion_r	hip_adduction_r	hip_rotation_r	knee_angle_r	ankle_angle_r	subtalar_angle_r	mtp_angle_r	hip_flexion_l	hip_adduction_l	hip_rotation_l	knee_angle_l	ankle_angle_l	subtalar_angle_l	mtp_angle_l	lumbar_extension	lumbar_bending	lumbar_rotation
      1.07500000	     18.61233972	      0.42719850	      1.40296493	     -0.48125553	      0.92242410	      0.29744018	      9.91357118	      1.11079910	     -2.58253294	    -14.99528374	     10.66721407	      2.74582243	     43.65431858	    -34.52110815	      1.62866559	     -8.61074896	    -14.16314974	     32.93102393	     17.38673159	     16.84277505	    -32.92457308	      1.86758602	     -4.34376595
      1.08000000	     18.73969345	      0.39077752	      1.48407364	     -0.47434840	      0.92152791	      0.29781217	      9.86877991	      1.26609740	     -2.27714075	    -15.92241685	     11.01636841	      3.02066197	     43.69520050	    -34.90680958	      1.44692811	     -8.66588062	    -14.60054769	     32.87005703	     17.58021479	     16.99789364	    -32.96328455	      1.97852323	     -4.38000077
      1.08500000	     18.69732837	      0.43969920	      1.66822106	     -0.46734844	      0.92049213	      0.29820198	      9.93658127	      1.34459925	     -1.96391838	    -16.78059441	     11.41465984	      3.17827963	     43.72106717	    -35.02710029	      1.25958503	     -8.58745793	    -15.20387584	     32.88922751	     17.83729189	     17.24534077	    -32.80115038	      2.04163366	     -4.66391103
      1.09000000	     18.65032867	      0.54073225	      1.79838486	     -0.46039939	      0.91944410	      0.29841208	     10.11187689	      1.34534861	     -1.87377586	    -17.86229523	     11.29643640	      3.48947737	     44.96178557	    -35.12267983	      1.17853522	     -8.39799667	    -15.81662828	     32.53064214	     17.72088139	     20.09379582	    -32.65720929	      2.04316282	     -4.84806412
      1.09500000	     18.47871383	      0.58654935	      1.81824896	     -0.45346789	      0.91830441	      0.29881426	     10.50490430	      1.41813594	     -1.78280222	    -19.00239749	      9.92427695	      3.35883310	     48.01206378	    -35.04879059	      1.10736213	     -8.36500709	    -16.51407050	     32.32326138	     17.70031287	     21.12391025	    -32.36804946	      2.03490946	     -4.93811287
      1.10000000	     18.43747605	      0.50225719	      2.00013322	     -0.44672607	      0.91755497	      0.29909069	     10.67585302	      1.61618469	     -1.84662944	    -19.85539057	      7.76084309	      2.64361274	     50.78596916	    -35.06883491	      0.80604971	     -8.21704962	    -17.25568197	     32.14480727	     17.80942513	     22.42536211	    -32.24338038	      2.24503574	     -5.09487421
      1.10500000	     18.20662022	      0.49082185	      2.07749038	     -0.44004202	      0.91666929	      0.29954458	     11.15570916	      1.71719591	     -1.70563906	    -20.87177301	      6.37173241	      1.85762798	     50.67479766	    -34.84325902	      0.64460256	     -7.98143564	    -18.07998961	     31.96780379	     17.79293894	     22.75417244	    -31.92167329	      2.31355294	     -5.19542223
      1.11000000	     17.88957161	      0.37362649	      2.11016473	     -0.43330117	      0.91583553	      0.30004800	     11.68753095	      1.93114524	     -1.41187795	    -21.76710735	      6.23891512	      1.45715129	     51.04551331	    -34.47209928	      0.42624548	     -7.81506321	    -18.98585407	     31.63061949	     17.51577986	     24.27982098	    -31.50395005	      2.46168351	     -5.09082006
      1.11500000	     17.76575751	      0.27379076	      2.24194780	     -0.42673758	      0.91533252	      0.30047053	     12.02350064	      2.11208848	     -1.45300260	    -22.76580595	      7.08562430	      1.47996069	     51.17784350	    -34.24562572	      0.15836516	     -7.50958616	    -19.98459394	     31.35448409	     17.40375979	     24.81182452	    -31.31457615	      2.65546198	     -5.15150410
      1.12000000	     17.56743079	      0.22753310	      2.19296332	     -0.42012781	      0.91489562	      0.30092667	     12.54784991	      2.22112941	     -1.49748673	    -24.07131822	      8.00691346	      1.42496712	     50.27187726	    -33.89848799	      0.06943875	     -7.35275745	    -21.03357453	     30.66095713	     16.84423875	     28.23608079	    -31.04747751	      2.72180995	     -5.05735902
      1.12500000	     17.36495072	      0.15976085	      2.21880803	     -0.41342299	      0.91454837	      0.30138213	     13.09944198	      2.34146401	     -1.56794455	    -25.54840235	      8.65355329	      1.15631059	     47.75979553	    -33.48241381	     -0.09573977	     -7.17782025	    -22.22147201	     30.05626187	     16.48219662	     30.16542665	    -30.77495761	      2.83881765	     -5.04877931
      1.13000000	     17.22280618	      0.05977868	      2.23607602	     -0.40680965	      0.91433728	      0.30191682	     13.56066449	      2.51788395	     -1.50442595	    -27.01697082	      9.38664468	      0.88834798	     44.89040905	    -33.05444197	     -0.29870170	     -7.01705976	    -23.53890122	     29.34725201	     16.11275843	     32.31067012	    -30.56916345	      2.97751657	     -4.94607567
      1.13500000	     17.15574083	     -0.08112038	      2.34901986	     -0.40013714	      0.91446173	      0.30233905	     13.81736314	      2.74277892	     -1.40140529	    -28.27221316	     10.21081658	      0.99478096	     43.27262097	    -32.65147192	     -0.59532989	     -6.82871894	    -24.91362594	     28.54618458	     15.74682258	     34.42202592	    -30.44380185	      3.19649361	     -4.90576362
      1.14000000	     17.17329851	     -0.26243779	      2.45243173	     -0.39348816	      0.91481917	      0.30273759	     13.88147168	      3.02504998	     -1.28849967	    -29.30328667	     10.88926621	      1.33185573	     42.37321057	    -32.22890209	     -0.93606865	     -6.72505849	    -26.47530591	     27.65083073	     15.35053501	     36.40946576	    -30.41232253	      3.47753058	     -4.83348519
      1.14500000	     17.26216188	     -0.51419589	      2.63018868	     -0.38680437	      0.91535409	      0.30304058	     13.78524322	      3.38023173	     -1.27034972	    -30.16303495	     11.47354645	      1.48328724	     40.62913877	    -31.77752982	     -1.43038851	     -6.76478848	    -28.20972605	     26.72754592	     15.27796267	     38.51027037	    -30.44995026	      3.85979850	     -4.73962096
      1.15000000	     17.29673784	     -0.74265024	      2.77555151	     -0.38013942	      0.91601083	      0.30321165	     13.63954877	      3.71006595	     -1.19950367	    -30.81506310	     12.00219992	      1.36705781	     38.61937880	    -31.22136395	     -1.84598962	     -6.64685613	    -29.96422353	     25.52991720	     14.81846370	     41.09110681	    -30.43072432	      4.21392970	     -4.67131429
      1.15500000	     17.29016149	     -0.88638760	      2.89020110	     -0.37375026	      0.91665088	      0.30353079	     13.50940440	      3.95359924	     -1.11744907	    -31.38032177	     12.48912309	      1.19519355	     37.22346306	    -30.49773241	     -2.17884686	     -6.47786293	    -31.88053252	     24.16488543	     14.34742543	     43.71150031	    -30.40317325	      4.46435758	     -4.54109968
      1.16000000	     17.17883881	     -1.08829646	      3.08318885	     -0.36735165	      0.91716471	      0.30393337	     13.39703744	      4.26387996	     -1.09415781	    -31.76216143	     12.95983608	      1.02442907	     36.28352207	    -29.54103418	     -2.65707570	     -6.38632960	    -33.97005859	     22.74804449	     14.02450918	     46.24363678	    -30.25781886	      4.78456908	     -4.48505689
      1.16500000	     17.05495358	     -1.27700463	      3.27179878	     -0.36110889	      0.91763808	      0.30435765	     13.25451822	      4.54278958	     -1.16278056	    -32.04574148	     13.43705207	      1.02698752	     35.08351094	    -28.43134302	     -3.14174179	     -6.28984300	    -36.24532554	     21.26064714	     13.69430535	     48.12672277	    -30.11132116	      5.07695873	     -4.42982977
      1.17000000	     16.94923051	     -1.55652711	      3.50745823	     -0.35491829	      0.91809520	      0.30468280	     13.04395122	      4.91747460	     -1.31611640	    -32.21234839	     13.89104782	      0.98070568	     34.04059347	    -27.24289377	     -3.74808371	     -6.19778367	    -38.63191477	     19.61160388	     13.32435570	     50.29684507	    -29.98021670	      5.47900973	     -4.35508881
      1.17500000	     16.66168685	     -1.73306354	      3.76372004	     -0.34877702	      0.91825757	      0.30499843	     13.04684060	      5.13325082	     -1.59734216	    -32.40579843	     14.39883594	      1.08867803	     32.80525280	    -25.79779051	     -4.21466045	     -5.88137037	    -41.04307743	     17.91307128	     12.81634566	     52.55441062	    -29.64941121	      5.79252896	     -4.38682197
      1.18000000	     16.33516435	     -2.03960305	      4.13901467	     -0.34290927	      0.91837932	      0.30514355	     13.01999012	      5.49628987	     -1.90575567	    -32.38288796	     14.58321868	      0.81758011	     32.42017898	    -24.18556496	     -4.84092683	     -5.42354337	    -43.60628731	     16.34926565	     12.60084613	     53.00309797	    -29.28757014	      6.28852832	     -4.39433206
